{"title":"Zookeeper [2011] R5 XviD - Pr0per","uid":6623647,"size":1482056154,"categoryP":"video","categoryS":"movies","magnet":"?xt=urn:btih:91345b060c51661545b3e8d388c0256ca358ea97&amp;dn=Zookeeper+%5B2011%5D+R5+XviD+-+Pr0per&amp;tr=udp%3A%2F%2Ftracker.openbittorrent.com%3A80&amp;tr=udp%3A%2F%2Fopen.demonii.com%3A1337&amp;tr=udp%3A%2F%2Ftracker.coppersurfer.tk%3A6969&amp;tr=udp%3A%2F%2Fexodus.desync.com%3A6969","seeders":0,"leechers":0,"uploader":"Pr0per","files":1,"time":1314093634,"description":"Format : AVI\nFormat/Info : Audio Video Interleave\nFile size : 1.38 GiB\nDuration : 1h 37mn\nOverall bit rate : 2 025 Kbps\n\nVideo\nID : 0\nFormat : MPEG-4 Visual\nFormat profile : Advanced Simple@L5\nFormat settings, BVOP : Yes\nFormat settings, QPel : No\nFormat settings, GMC : No warppoints\nFormat settings, Matrix : Default (MPEG)\nCodec ID : XVID\nCodec ID/Hint : XviD\nDuration : 1h 37mn\nBit rate : 1 885 Kbps\nWidth : 720 pixels\nHeight : 304 pixels\nDisplay aspect ratio : 2.35:1\nFrame rate : 25.000 fps\nResolution : 8 bits\nColorimetry : 4:2:0\nScan type : Progressive\nBits/(Pixel*Frame) : 0.344\nStream size : 1.28 GiB (93%)\nWriting library : XviD 1.2.1 (UTC 2008-12-04)\n\nAudio\nID : 1\nFormat : MPEG Audio\nFormat version : Version 1\nFormat profile : Layer 3\nCodec ID : 55\nCodec ID/Hint : MP3\nDuration : 1h 37mn\nBit rate mode : Constant\nBit rate : 128 Kbps\nChannel(s) : 2 channels\nSampling rate : 44.1 KHz\nStream size : 89.3 MiB (6%)\nAlignment : Split accross interleaves\nInterleave, duration : 26 ms (0.65 video frame)","torrent":{"xt":"urn:btih:91345b060c51661545b3e8d388c0256ca358ea97","amp;dn":"Zookeeper+%5B2011%5D+R5+XviD+-+Pr0per","amp;tr":["udp%3A%2F%2Ftracker.openbittorrent.com%3A80","udp%3A%2F%2Fopen.demonii.com%3A1337","udp%3A%2F%2Ftracker.coppersurfer.tk%3A6969","udp%3A%2F%2Fexodus.desync.com%3A6969"],"infoHash":"91345b060c51661545b3e8d388c0256ca358ea97","infoHashBuffer":{"type":"Buffer","data":[145,52,91,6,12,81,102,21,69,179,232,211,136,192,37,108,163,88,234,151]},"announce":[],"urlList":[]}}